<?xml version="1.0" standalone="no"?>
<!DOCTYPE svg PUBLIC "-//W3C//DTD SVG 20010904//EN"
 "http://www.w3.org/TR/2001/REC-SVG-20010904/DTD/svg10.dtd">
<svg version="1.0" xmlns="http://www.w3.org/2000/svg"
 width="400.000000pt" height="400.000000pt" viewBox="0 0 400.000000 400.000000"
 preserveAspectRatio="xMidYMid meet">
<metadata>
Created by potrace 1.14, written by Peter Selinger 2001-2017
</metadata>
<g transform="translate(0.000000,400.000000) scale(0.100000,-0.100000)"
fill="#000000" stroke="none">
<path d="M410 2278 c0 -970 -2 -937 68 -1078 54 -110 168 -223 282 -279 144
-70 150 -71 815 -71 468 0 601 3 641 14 156 41 278 164 320 321 11 39 14 193
14 726 0 636 -1 680 -19 751 -48 188 -171 336 -346 419 -120 56 -128 57 -795
61 l-615 3 0 -90 0 -90 635 -5 c562 -4 640 -7 676 -22 133 -53 227 -161 274
-313 22 -74 41 -311 24 -304 -5 2 -45 22 -89 44 -77 39 -81 40 -185 40 -98 0
-109 -2 -173 -33 -169 -83 -271 -271 -239 -443 55 -295 363 -446 621 -303 24
13 45 24 48 24 2 0 3 -82 1 -182 -3 -154 -6 -189 -22 -220 -39 -79 -121 -136
-210 -145 -134 -14 -245 72 -277 215 l-12 52 -349 0 -348 0 0 50 0 50 -90 0
-90 0 0 -130 0 -130 375 0 375 0 25 -50 c14 -28 45 -70 68 -95 l44 -45 -446 0
c-346 0 -458 3 -497 14 -154 41 -273 166 -320 337 -19 70 -31 289 -16 289 6 0
28 -11 48 -25 107 -72 268 -83 390 -26 268 125 334 467 131 675 -74 75 -163
116 -265 123 -93 7 -151 -5 -234 -47 l-58 -30 -2 408 -3 407 -87 3 -88 3 0
-873z m556 -56 c92 -47 153 -162 139 -262 -9 -63 -59 -147 -110 -182 -95 -67
-234 -57 -320 23 -59 55 -85 113 -85 192 0 110 65 205 165 242 55 20 158 14
211 -13z m1261 4 c42 -21 98 -77 119 -118 26 -50 30 -149 9 -205 -21 -56 -76
-118 -124 -143 -120 -60 -271 -17 -337 95 -86 147 -24 322 135 382 46 17 156
11 198 -11z"/>
<path d="M1416 2534 c-59 -59 -20 -154 64 -154 56 0 90 34 90 90 0 82 -95 122
-154 64z"/>
<path d="M2793 2410 c-63 -38 -63 -38 -63 -470 l0 -390 100 0 100 0 0 140 0
140 95 0 94 0 3 -137 3 -138 100 0 100 0 3 380 c2 424 2 426 -67 472 -32 22
-43 23 -235 23 -182 0 -204 -2 -233 -20z m327 -275 l0 -95 -95 0 -95 0 0 95 0
95 95 0 95 0 0 -95z"/>
<path d="M3470 2330 l0 -100 50 0 50 0 -2 -237 -3 -238 -47 -3 -48 -3 0 -100
0 -99 200 0 200 0 0 100 0 100 -50 0 -50 0 0 240 0 240 50 0 50 0 0 100 0 100
-200 0 -200 0 0 -100z"/>
<path d="M1407 2214 c-4 -4 -7 -151 -7 -326 l0 -318 80 0 80 0 -2 323 -3 322
-70 3 c-39 1 -74 0 -78 -4z"/>
</g>
</svg>
